<svg xmlns="http://www.w3.org/2000/svg" version="1.1" width="100" height="100" viewBox="0 0 100 100"><rect x="0" y="0" width="100" height="100" fill="#ffffff"/><g transform="scale(4)"><g transform="translate(0,0)"><path fill-rule="evenodd" d="M8 0L8 2L10 2L10 4L8 4L8 9L7 9L7 8L5 8L5 10L4 10L4 9L3 9L3 8L0 8L0 9L1 9L1 13L3 13L3 12L4 12L4 13L5 13L5 14L4 14L4 15L5 15L5 17L8 17L8 18L9 18L9 19L8 19L8 20L9 20L9 21L10 21L10 20L9 20L9 19L10 19L10 18L11 18L11 19L12 19L12 18L11 18L11 17L10 17L10 18L9 18L9 16L6 16L6 15L7 15L7 14L8 14L8 15L10 15L10 14L8 14L8 12L9 12L9 13L10 13L10 11L9 11L9 10L11 10L11 11L12 11L12 10L11 10L11 8L13 8L13 6L14 6L14 8L16 8L16 9L15 9L15 13L14 13L14 12L11 12L11 13L12 13L12 15L11 15L11 16L13 16L13 18L14 18L14 17L15 17L15 18L16 18L16 19L15 19L15 21L16 21L16 22L17 22L17 23L16 23L16 24L15 24L15 22L13 22L13 21L14 21L14 19L13 19L13 20L11 20L11 21L12 21L12 23L11 23L11 24L10 24L10 23L9 23L9 22L8 22L8 25L9 25L9 24L10 24L10 25L11 25L11 24L13 24L13 25L17 25L17 23L18 23L18 21L20 21L20 22L19 22L19 24L21 24L21 25L22 25L22 24L21 24L21 23L22 23L22 22L23 22L23 23L25 23L25 22L24 22L24 21L25 21L25 20L24 20L24 19L25 19L25 17L24 17L24 16L23 16L23 17L24 17L24 19L23 19L23 20L24 20L24 21L22 21L22 22L21 22L21 16L22 16L22 15L23 15L23 14L24 14L24 15L25 15L25 12L24 12L24 13L23 13L23 14L21 14L21 15L19 15L19 14L20 14L20 13L19 13L19 11L20 11L20 12L22 12L22 11L23 11L23 10L24 10L24 11L25 11L25 8L23 8L23 10L22 10L22 9L21 9L21 8L17 8L17 5L16 5L16 4L17 4L17 3L16 3L16 4L15 4L15 2L14 2L14 1L13 1L13 0L11 0L11 1L9 1L9 0ZM11 1L11 2L12 2L12 1ZM16 1L16 2L17 2L17 1ZM11 3L11 4L12 4L12 6L11 6L11 5L9 5L9 8L10 8L10 6L11 6L11 7L12 7L12 6L13 6L13 4L14 4L14 3ZM15 5L15 7L16 7L16 5ZM2 9L2 11L3 11L3 9ZM6 9L6 10L5 10L5 11L4 11L4 12L5 12L5 13L6 13L6 14L5 14L5 15L6 15L6 14L7 14L7 13L6 13L6 12L8 12L8 10L9 10L9 9L8 9L8 10L7 10L7 9ZM16 9L16 11L19 11L19 10L18 10L18 9ZM20 9L20 11L21 11L21 9ZM6 10L6 11L5 11L5 12L6 12L6 11L7 11L7 10ZM16 12L16 13L18 13L18 12ZM13 13L13 14L14 14L14 15L13 15L13 16L14 16L14 15L15 15L15 16L19 16L19 15L18 15L18 14L17 14L17 15L15 15L15 14L14 14L14 13ZM0 14L0 15L2 15L2 16L0 16L0 17L2 17L2 16L3 16L3 17L4 17L4 16L3 16L3 14ZM17 17L17 20L20 20L20 17ZM18 18L18 19L19 19L19 18ZM13 23L13 24L14 24L14 23ZM24 24L24 25L25 25L25 24ZM0 0L0 7L7 7L7 0ZM1 1L1 6L6 6L6 1ZM2 2L2 5L5 5L5 2ZM18 0L18 7L25 7L25 0ZM19 1L19 6L24 6L24 1ZM20 2L20 5L23 5L23 2ZM0 18L0 25L7 25L7 18ZM1 19L1 24L6 24L6 19ZM2 20L2 23L5 23L5 20Z" fill="#000000"/></g></g></svg>