<svg xmlns="http://www.w3.org/2000/svg" version="1.1" width="100" height="100" viewBox="0 0 100 100"><rect x="0" y="0" width="100" height="100" fill="#ffffff"/><g transform="scale(4)"><g transform="translate(0,0)"><path fill-rule="evenodd" d="M8 0L8 1L9 1L9 2L8 2L8 5L9 5L9 4L11 4L11 5L10 5L10 10L8 10L8 11L7 11L7 10L6 10L6 9L7 9L7 8L6 8L6 9L4 9L4 8L0 8L0 13L2 13L2 14L1 14L1 15L0 15L0 16L1 16L1 15L4 15L4 16L5 16L5 17L8 17L8 18L9 18L9 20L10 20L10 21L11 21L11 20L12 20L12 19L11 19L11 17L8 17L8 16L5 16L5 15L7 15L7 14L9 14L9 16L12 16L12 17L13 17L13 16L12 16L12 14L13 14L13 13L14 13L14 14L16 14L16 15L15 15L15 16L14 16L14 17L15 17L15 18L13 18L13 21L15 21L15 22L14 22L14 23L10 23L10 24L9 24L9 21L8 21L8 25L12 25L12 24L15 24L15 25L16 25L16 24L15 24L15 23L19 23L19 21L20 21L20 24L19 24L19 25L25 25L25 24L23 24L23 23L24 23L24 22L25 22L25 21L24 21L24 20L23 20L23 21L22 21L22 20L21 20L21 17L22 17L22 19L25 19L25 15L24 15L24 14L25 14L25 12L23 12L23 11L19 11L19 10L20 10L20 9L23 9L23 10L24 10L24 9L25 9L25 8L24 8L24 9L23 9L23 8L20 8L20 9L19 9L19 10L18 10L18 11L17 11L17 10L16 10L16 11L15 11L15 12L14 12L14 11L13 11L13 10L14 10L14 9L18 9L18 8L17 8L17 6L16 6L16 7L15 7L15 5L13 5L13 4L16 4L16 5L17 5L17 3L16 3L16 2L17 2L17 0L16 0L16 2L15 2L15 0L12 0L12 1L11 1L11 0L10 0L10 1L9 1L9 0ZM11 2L11 4L12 4L12 3L13 3L13 2ZM14 2L14 3L15 3L15 2ZM12 5L12 6L11 6L11 8L12 8L12 6L13 6L13 8L15 8L15 7L14 7L14 6L13 6L13 5ZM8 6L8 7L9 7L9 6ZM8 8L8 9L9 9L9 8ZM2 9L2 10L1 10L1 12L2 12L2 13L3 13L3 14L4 14L4 15L5 15L5 13L6 13L6 14L7 14L7 13L6 13L6 12L7 12L7 11L4 11L4 12L2 12L2 10L3 10L3 9ZM11 9L11 10L12 10L12 9ZM8 11L8 13L9 13L9 11ZM11 11L11 13L10 13L10 14L11 14L11 13L12 13L12 12L13 12L13 11ZM16 11L16 12L17 12L17 11ZM21 12L21 16L24 16L24 15L22 15L22 14L24 14L24 13L22 13L22 12ZM17 13L17 14L18 14L18 15L16 15L16 16L15 16L15 17L16 17L16 16L18 16L18 15L20 15L20 14L18 14L18 13ZM2 16L2 17L3 17L3 16ZM17 17L17 20L20 20L20 17ZM23 17L23 18L24 18L24 17ZM15 18L15 19L16 19L16 18ZM18 18L18 19L19 19L19 18ZM15 20L15 21L16 21L16 20ZM21 22L21 24L22 24L22 22ZM17 24L17 25L18 25L18 24ZM0 0L0 7L7 7L7 0ZM1 1L1 6L6 6L6 1ZM2 2L2 5L5 5L5 2ZM18 0L18 7L25 7L25 0ZM19 1L19 6L24 6L24 1ZM20 2L20 5L23 5L23 2ZM0 18L0 25L7 25L7 18ZM1 19L1 24L6 24L6 19ZM2 20L2 23L5 23L5 20Z" fill="#000000"/></g></g></svg>