<svg width="111" height="27" viewBox="0 0 111 27" fill="none" xmlns="http://www.w3.org/2000/svg">
<g clip-path="url(#clip0)">
<path d="M79.6856 4.11768C78.8538 4.11768 78.1795 4.80911 78.1795 5.66207V16.9843C78.1795 17.8373 78.8538 18.5287 79.6856 18.5287C80.5175 18.5287 81.1918 17.8373 81.1918 16.9843V5.66207C81.1918 4.80911 80.5175 4.11768 79.6856 4.11768Z" fill="#602D90"/>
<path d="M79.6856 0C79.2669 0 78.9118 0.150189 78.6189 0.450567C78.3259 0.750945 78.1795 1.11508 78.1795 1.5444C78.1795 1.97371 78.3259 2.33785 78.6189 2.63822C78.9118 2.9386 79.2669 3.08879 79.6856 3.08879C80.1043 3.08879 80.4594 2.9386 80.7524 2.63822C81.0453 2.33785 81.1918 1.97371 81.1918 1.5444C81.1918 1.11508 81.0453 0.750945 80.7524 0.450567C80.4594 0.150189 80.1043 0 79.6856 0Z" fill="#56C4CF"/>
<path d="M16.2334 0C15.8147 0 15.4596 0.150189 15.1666 0.450567C14.8737 0.750945 14.7272 1.11508 14.7272 1.5444C14.7272 1.97371 14.8737 2.33785 15.1666 2.63822C15.4596 2.9386 15.8147 3.08879 16.2334 3.08879C16.6521 3.08879 17.0072 2.9386 17.3001 2.63822C17.5931 2.33785 17.7395 1.97371 17.7395 1.5444C17.7395 1.11508 17.5931 0.750945 17.3001 0.450567C17.0086 0.150189 16.6521 0 16.2334 0Z" fill="#56C4CF"/>
<path d="M4.44945 4.9603C2.64344 5.69849 1.35698 6.98077 0.591462 8.80429C-0.174055 10.6292 -0.196164 12.4683 0.523754 14.3202C1.24367 16.1735 2.49282 17.4926 4.27258 18.2775C6.05234 19.0625 7.84453 19.0866 9.65193 18.347C11.4593 17.6088 12.7444 16.3279 13.5099 14.503L13.5182 14.4817C13.5182 14.4817 14.0543 12.9005 12.685 12.4386C11.3667 11.9937 10.7532 13.2476 10.7477 13.259C10.7477 13.259 10.7477 13.259 10.7477 13.2604L10.7435 13.2703C10.3815 14.1317 9.75971 14.8671 8.94306 15.2908C7.77682 15.8958 6.61749 15.9439 5.46369 15.4367C4.78246 15.1363 4.23665 14.6957 3.82764 14.1162C3.81797 14.102 3.82349 14.0807 3.83869 14.0751L13.0152 10.326C13.5182 10.1206 13.7849 9.53681 13.5873 9.01965C13.5831 9.00974 13.579 8.99982 13.5762 8.98848C12.8591 7.13379 11.6099 5.81609 9.8288 5.02973C8.05042 4.24619 6.25684 4.22211 4.44945 4.9603ZM9.49993 8.43732L3.11601 11.0458C3.09667 11.0529 3.07594 11.0373 3.08008 11.016C3.11739 10.7681 3.18096 10.5187 3.26939 10.2679C3.69775 9.06358 4.66363 8.11427 5.85336 7.72179C6.78607 7.41433 7.71326 7.46392 8.63768 7.87198C8.96103 8.01509 9.2512 8.18795 9.50684 8.39056C9.52204 8.40331 9.51789 8.43023 9.49993 8.43732Z" fill="#602D90"/>
<path d="M13.6563 13.8628C13.6563 14.7242 12.9751 15.4213 12.1363 15.4213C11.2962 15.4213 10.6164 14.7228 10.6164 13.8628C10.6164 13.0013 11.2976 12.3042 12.1363 12.3042C12.9751 12.3042 13.6563 13.0027 13.6563 13.8628Z" fill="#FFF242"/>
<path d="M87.6683 4.60353C85.8609 5.34173 84.5758 6.624 83.8103 8.44752C83.0448 10.2725 83.0213 12.1116 83.7412 13.9634C84.4611 15.8167 85.7103 17.1344 87.49 17.9193C89.2698 18.7043 91.062 18.727 92.8694 17.9888C94.6768 17.2506 95.9618 15.9697 96.7274 14.1448L96.7357 14.1235C96.7357 14.1235 97.2718 12.5423 95.9024 12.0804C94.5842 11.6355 93.9707 12.8894 93.9651 12.9008C93.9651 12.9008 93.9651 12.9008 93.9651 12.9022L93.9624 12.9135C93.6003 13.775 92.9785 14.5103 92.1619 14.934C90.9956 15.539 89.8363 15.5872 88.6825 15.0799C88.0013 14.7795 87.4555 14.3389 87.0465 13.7594C87.0368 13.7452 87.0423 13.724 87.0575 13.7183L96.2341 9.96925C96.737 9.7638 97.0037 9.18005 96.8061 8.66289C96.802 8.65297 96.7978 8.64305 96.7951 8.63171C96.0752 6.77844 94.826 5.46074 93.0462 4.67579C91.2679 3.88943 89.4757 3.86534 87.6683 4.60353ZM92.7174 8.08055L86.3335 10.689C86.3141 10.6961 86.2934 10.6805 86.2975 10.6593C86.3348 10.4113 86.3984 10.1619 86.4868 9.91115C86.9152 8.70681 87.8811 7.7575 89.0708 7.36503C90.0035 7.05756 90.9307 7.10715 91.8551 7.51521C92.1785 7.65832 92.4686 7.83118 92.7243 8.03379C92.7409 8.04654 92.7367 8.07346 92.7174 8.08055Z" fill="#602D90"/>
<path d="M96.9111 13.459C96.9111 14.3204 96.2299 15.0175 95.3912 15.0175C94.551 15.0175 93.8712 14.319 93.8712 13.459C93.8712 12.5975 94.5524 11.9004 95.3912 11.9004C96.2299 11.9004 96.9111 12.5989 96.9111 13.459Z" fill="#56C4CF"/>
<path d="M30.9689 14.3941C29.775 13.5015 28.9045 14.5741 28.9045 14.5741L28.8893 14.5896C28.1058 15.3944 27.1593 15.7954 26.0511 15.7954C24.9429 15.7954 23.9963 15.393 23.2115 14.5896C22.428 13.7849 22.0356 12.8157 22.0356 11.678C22.0356 10.5416 22.428 9.57106 23.2115 8.76628C23.9963 7.96149 24.9429 7.56052 26.0511 7.56052C27.1593 7.56052 28.1058 7.96291 28.8893 8.76628L28.9045 8.78186C28.9045 8.78186 29.9547 9.8431 31.0684 8.80878C32.1379 7.81414 31.038 6.59562 31.038 6.59562L31.0228 6.58004C29.6534 5.17591 27.9953 4.47314 26.0511 4.47314C24.1055 4.47314 22.4487 5.17591 21.0794 6.58004C19.7086 7.98416 19.0246 9.68441 19.0246 11.678C19.0246 13.6715 19.71 15.3718 21.0794 16.7759C22.4487 18.18 24.1069 18.8828 26.0511 18.8828C27.9953 18.8828 29.6534 18.18 31.0228 16.7759L31.038 16.7603C31.038 16.7617 32.2111 15.3236 30.9689 14.3941Z" fill="#602D90"/>
<path d="M31.6156 7.78415C31.6156 8.64561 30.9344 9.34271 30.0956 9.34271C29.2555 9.34271 28.5756 8.64419 28.5756 7.78415C28.5756 6.92269 29.2569 6.22559 30.0956 6.22559C30.9344 6.22559 31.6156 6.92411 31.6156 7.78415Z" fill="#56C4CF"/>
<path d="M75.9078 6.24016L75.8926 6.22457C74.5232 4.82045 72.8651 4.11768 70.9209 4.11768C68.9753 4.11768 67.3185 4.82045 65.9491 6.22457C64.5784 7.6287 63.8944 9.32895 63.8944 11.3225V17.0396C63.8944 17.8614 64.5439 18.5287 65.3467 18.5287C66.2089 18.5287 66.9067 17.8132 66.9067 16.9291V11.348C66.9067 10.3165 67.2674 9.31053 67.95 8.5525C68.8578 7.5451 69.9951 7.10162 71.3589 7.22489C72.2695 7.30707 73.1138 7.74771 73.7605 8.41081L73.7757 8.4264C73.7757 8.4264 74.9654 9.56415 76.0197 8.52983C77.1873 7.38358 75.9078 6.24016 75.9078 6.24016Z" fill="#602D90"/>
<path d="M75.0372 5.93701C74.6185 5.93701 74.2634 6.0872 73.9705 6.38758C73.6775 6.68796 73.5311 7.05209 73.5311 7.48141C73.5311 7.91072 73.6775 8.27486 73.9705 8.57524C74.2634 8.87561 74.6185 9.0258 75.0372 9.0258C75.4559 9.0258 75.811 8.87561 76.104 8.57524C76.3969 8.27486 76.5434 7.91072 76.5434 7.48141C76.5434 7.05209 76.3969 6.68796 76.104 6.38758C75.811 6.0872 75.4559 5.93701 75.0372 5.93701Z" fill="#FFF242"/>
<path d="M110.364 6.24016L110.349 6.22457C108.98 4.82045 107.322 4.11768 105.378 4.11768C103.432 4.11768 101.775 4.82045 100.406 6.22457C99.0351 7.6287 98.3511 9.32895 98.3511 11.3225V17.0396C98.3511 17.8614 99.0005 18.5287 99.8033 18.5287C100.666 18.5287 101.363 17.8132 101.363 16.9291V11.348C101.363 10.3165 101.724 9.31053 102.407 8.5525C103.314 7.5451 104.452 7.10162 105.816 7.22489C106.726 7.30707 107.57 7.74771 108.217 8.41081L108.232 8.4264C108.232 8.4264 109.422 9.56415 110.476 8.52983C111.644 7.38358 110.364 6.24016 110.364 6.24016Z" fill="#602D90"/>
<path d="M109.494 5.93701C109.075 5.93701 108.72 6.0872 108.427 6.38758C108.134 6.68796 107.988 7.05209 107.988 7.48141C107.988 7.91072 108.134 8.27486 108.427 8.57524C108.72 8.87561 109.075 9.0258 109.494 9.0258C109.913 9.0258 110.268 8.87561 110.561 8.57524C110.854 8.27486 111 7.91072 111 7.48141C111 7.05209 110.854 6.68796 110.561 6.38758C110.268 6.0872 109.913 5.93701 109.494 5.93701Z" fill="#FFF242"/>
<path d="M39.4062 4.47314C37.462 4.47314 35.8038 5.17591 34.4345 6.58004C33.0651 7.98416 32.3797 9.68441 32.3797 11.678C32.3797 13.6715 33.0651 15.3718 34.4345 16.7759C35.8038 18.18 37.462 18.8828 39.4062 18.8828C41.3518 18.8828 43.0085 18.18 44.3779 16.7759C45.7473 15.3718 46.4326 13.6715 46.4326 11.678C46.4326 9.683 45.7473 7.98416 44.3779 6.58004C43.0085 5.17591 41.3518 4.47314 39.4062 4.47314ZM42.2458 14.5896C41.4609 15.3944 40.5144 15.7954 39.4062 15.7954C38.298 15.7954 37.3514 15.393 36.568 14.5896C35.7831 13.7849 35.3921 12.8157 35.3921 11.678C35.3921 10.5416 35.7845 9.57106 36.568 8.76628C37.3528 7.96149 38.298 7.56052 39.4062 7.56052C40.5144 7.56052 41.4609 7.96291 42.2458 8.76628C43.0293 9.57106 43.4217 10.5402 43.4217 11.678C43.4217 12.8157 43.0293 13.7863 42.2458 14.5896Z" fill="#602D90"/>
<path d="M40.9193 11.6299C40.9193 12.4913 40.2381 13.1884 39.3993 13.1884C38.5592 13.1884 37.8794 12.4899 37.8794 11.6299C37.8794 10.7684 38.5606 10.0713 39.3993 10.0713C40.2381 10.0713 40.9193 10.7698 40.9193 11.6299Z" fill="#FFF242"/>
<path d="M60.509 4.47314H60.4331C59.5763 4.47314 58.8813 5.18583 58.8813 6.0643V11.5759C58.8813 12.7094 58.4695 13.816 57.6833 14.6123C57.0159 15.2882 56.2324 15.6735 55.3328 15.7713C53.9165 15.9243 52.496 15.2938 51.6351 14.1292C51.1128 13.4221 50.8517 12.606 50.8517 11.678V5.9807C50.8517 5.14899 50.1939 4.47314 49.3814 4.47314C48.5302 4.47314 47.8393 5.18158 47.8393 6.05438V11.678C47.8393 13.6715 48.5247 15.3718 49.8941 16.7759C51.2634 18.18 52.9216 18.8828 54.8658 18.8828C56.8114 18.8828 58.4681 18.18 59.8375 16.7759C61.2069 15.3718 61.8922 13.6715 61.8922 11.678V5.89285C61.8922 5.10932 61.2732 4.47314 60.509 4.47314Z" fill="#602D90"/>
<path d="M61.9392 5.94235C61.9392 6.80381 61.2579 7.50092 60.4192 7.50092C59.579 7.50092 58.8992 6.8024 58.8992 5.94235C58.8992 5.08089 59.5804 4.38379 60.4192 4.38379C61.2593 4.38379 61.9392 5.08089 61.9392 5.94235Z" fill="#56C4CF"/>
<path d="M56.6939 24.4366C56.8819 24.618 56.9758 24.8857 56.9758 25.24V26.9572H56.6262V26.5251C56.5447 26.6696 56.4231 26.7815 56.2642 26.8623C56.1053 26.943 55.916 26.9827 55.6963 26.9827C55.395 26.9827 55.1546 26.909 54.9763 26.7617C54.7981 26.6143 54.7097 26.4188 54.7097 26.1765C54.7097 25.9413 54.7926 25.7515 54.9584 25.6083C55.1242 25.4638 55.3895 25.393 55.7529 25.393H56.611V25.2244C56.611 24.9863 56.5461 24.8036 56.4162 24.6789C56.2863 24.5542 56.0956 24.4918 55.8455 24.4918C55.6742 24.4918 55.5097 24.5216 55.3522 24.5783C55.1947 24.6364 55.0593 24.7157 54.9459 24.8177L54.7815 24.5386C54.9183 24.4196 55.0827 24.3275 55.2748 24.2623C55.4669 24.1971 55.6686 24.1646 55.8814 24.1646C56.2352 24.1646 56.506 24.2552 56.6939 24.4366ZM56.2835 26.5435C56.4314 26.4471 56.5405 26.3069 56.6124 26.1241V25.6707H55.7654C55.3025 25.6707 55.0717 25.8365 55.0717 26.1666C55.0717 26.3281 55.1311 26.4556 55.2513 26.5492C55.3715 26.6427 55.5387 26.6894 55.7543 26.6894C55.9602 26.688 56.1357 26.6398 56.2835 26.5435Z" fill="#58595B"/>
<path d="M61.7348 23.0483V26.9575H60.9692V26.6316C60.7703 26.8767 60.4829 27 60.1056 27C59.8459 27 59.6096 26.9405 59.3995 26.8215C59.1895 26.7025 59.0237 26.5324 58.9035 26.31C58.7833 26.089 58.7238 25.8325 58.7238 25.5406C58.7238 25.2487 58.7833 24.9923 58.9035 24.7713C59.0237 24.5502 59.1881 24.3802 59.3995 24.2598C59.6096 24.1408 59.8459 24.0812 60.1056 24.0812C60.458 24.0812 60.7343 24.196 60.9333 24.4241V23.0498H61.7348V23.0483ZM60.7482 26.1116C60.8822 25.9699 60.9485 25.7787 60.9485 25.5406C60.9485 25.3012 60.8822 25.1113 60.7482 24.9696C60.6141 24.8279 60.4469 24.7557 60.2452 24.7557C60.0393 24.7557 59.8707 24.8265 59.7367 24.9696C59.6027 25.1113 59.5363 25.3026 59.5363 25.5406C59.5363 25.7801 59.6027 25.9699 59.7367 26.1116C59.8707 26.2533 60.0393 26.3256 60.2452 26.3256C60.4469 26.3256 60.6141 26.2533 60.7482 26.1116Z" fill="#58595B"/>
<path d="M62.8775 26.8128C62.6467 26.6881 62.4657 26.5152 62.3358 26.2942C62.2059 26.0732 62.141 25.8224 62.141 25.5404C62.141 25.2585 62.2059 25.0077 62.3358 24.7867C62.4657 24.5656 62.6467 24.3928 62.8775 24.2681C63.1083 24.1434 63.3694 24.0811 63.661 24.0811C63.9525 24.0811 64.2123 24.1434 64.4417 24.2681C64.6711 24.3928 64.8507 24.5656 64.9806 24.7867C65.1105 25.0077 65.1754 25.2585 65.1754 25.5404C65.1754 25.8224 65.1105 26.0718 64.9806 26.2942C64.8507 26.5152 64.6711 26.6881 64.4417 26.8128C64.2123 26.9375 63.9525 26.9998 63.661 26.9998C63.3694 26.9998 63.1083 26.9375 62.8775 26.8128ZM64.1667 26.1114C64.298 25.9697 64.3643 25.7785 64.3643 25.5404C64.3643 25.301 64.298 25.1111 64.1667 24.9694C64.0341 24.8277 63.8655 24.7555 63.661 24.7555C63.4551 24.7555 63.2865 24.8263 63.1525 24.9694C63.0184 25.1111 62.9521 25.3024 62.9521 25.5404C62.9521 25.7799 63.0184 25.9697 63.1525 26.1114C63.2865 26.2531 63.4551 26.3254 63.661 26.3254C63.8669 26.3254 64.0354 26.2531 64.1667 26.1114Z" fill="#58595B"/>
<path d="M67.3642 26.8201C67.2854 26.8796 67.1887 26.925 67.074 26.9547C66.9593 26.9845 66.8391 27.0001 66.712 27.0001C66.3831 27.0001 66.1288 26.9136 65.9492 26.7422C65.7696 26.5708 65.6798 26.3171 65.6798 25.9842V24.8195H65.2528V24.1876H65.6798V23.4976H66.4812V24.1876H67.1693V24.8195H66.4812V25.9728C66.4812 26.0919 66.5116 26.184 66.571 26.2491C66.6304 26.3143 66.7161 26.3469 66.8253 26.3469C66.9524 26.3469 67.0602 26.3115 67.1486 26.2421L67.3642 26.8201Z" fill="#58595B"/>
<path d="M67.6888 23.0483H68.4903V26.9575H67.6888V23.0483Z" fill="#58595B"/>
<path d="M69.1481 23.5965C69.0555 23.5086 69.0099 23.3995 69.0099 23.2706C69.0099 23.1402 69.0555 23.0311 69.1481 22.9433C69.2407 22.8554 69.3609 22.8115 69.5074 22.8115C69.6552 22.8115 69.7741 22.854 69.8667 22.9376C69.9592 23.0212 70.0048 23.1275 70.0048 23.2536C70.0048 23.391 69.9592 23.5044 69.8667 23.5936C69.7741 23.6829 69.6539 23.7282 69.5074 23.7282C69.3595 23.7282 69.2393 23.6843 69.1481 23.5965ZM69.1067 24.1235H69.9081V26.9573H69.1067V24.1235Z" fill="#58595B"/>
<path d="M73.0337 24.397C73.2438 24.6081 73.3502 24.9198 73.3502 25.335V26.9573H72.5487V25.4611C72.5487 25.2358 72.5004 25.0686 72.405 24.9581C72.3097 24.8476 72.1701 24.7923 71.9891 24.7923C71.7873 24.7923 71.6257 24.8561 71.5055 24.985C71.3852 25.114 71.3258 25.3038 71.3258 25.556V26.9573H70.5244V24.1236H71.2899V24.4551C71.3963 24.3361 71.5276 24.244 71.6851 24.1788C71.8426 24.1136 72.0153 24.0811 72.2046 24.0811C72.5473 24.0811 72.8237 24.1859 73.0337 24.397Z" fill="#58595B"/>
<path d="M76.6692 25.7714H74.5786C74.6159 25.9471 74.7057 26.086 74.8453 26.188C74.9862 26.29 75.1603 26.341 75.369 26.341C75.5127 26.341 75.6398 26.3184 75.7517 26.2758C75.8637 26.2319 75.9673 26.1625 76.0626 26.0676L76.4896 26.5422C76.2298 26.8483 75.8498 27.0013 75.3496 27.0013C75.0373 27.0013 74.7624 26.9389 74.5219 26.8143C74.2815 26.6896 74.0977 26.5167 73.9664 26.2957C73.8365 26.0746 73.7716 25.8239 73.7716 25.5419C73.7716 25.2642 73.8352 25.0148 73.9637 24.791C74.0922 24.5685 74.2691 24.3942 74.4929 24.2695C74.7168 24.1449 74.9682 24.0825 75.246 24.0825C75.5168 24.0825 75.7614 24.142 75.9811 24.261C76.2008 24.3801 76.3722 24.5515 76.4979 24.774C76.6236 24.9964 76.6858 25.2557 76.6858 25.5504C76.6844 25.5617 76.6789 25.6354 76.6692 25.7714ZM74.7941 24.8604C74.6712 24.9652 74.5952 25.1098 74.5675 25.2925H75.9286C75.901 25.114 75.8263 24.9709 75.702 24.8632C75.579 24.7555 75.4284 24.7031 75.2501 24.7031C75.0691 24.7031 74.9171 24.7555 74.7941 24.8604Z" fill="#58595B"/>
<path d="M77.3464 26.9119C77.1267 26.8538 76.9526 26.7816 76.8227 26.6937L77.0894 26.1043C77.2124 26.1851 77.3616 26.2517 77.5357 26.3013C77.7098 26.3523 77.8812 26.3778 78.0497 26.3778C78.3883 26.3778 78.5582 26.2913 78.5582 26.1199C78.5582 26.0391 78.5126 25.981 78.4201 25.9456C78.3275 25.9102 78.1851 25.8804 77.9931 25.8564C77.7665 25.8209 77.5799 25.7813 77.4334 25.7345C77.2856 25.6892 77.1585 25.6084 77.0507 25.4922C76.9429 25.376 76.889 25.2117 76.889 24.9963C76.889 24.8178 76.9401 24.6591 77.041 24.5202C77.1419 24.3814 77.2897 24.2737 77.4832 24.1958C77.6766 24.1193 77.9046 24.0796 78.1686 24.0796C78.3634 24.0796 78.5582 24.1023 78.7517 24.1448C78.9451 24.1887 79.1054 24.2496 79.2326 24.3261L78.9659 24.9113C78.7227 24.771 78.4574 24.7002 78.1699 24.7002C77.9986 24.7002 77.8701 24.7243 77.7844 24.7739C77.6987 24.8235 77.6559 24.8858 77.6559 24.9637C77.6559 25.0516 77.7015 25.1125 77.7941 25.1479C77.8867 25.1833 78.0331 25.2159 78.2363 25.2485C78.4629 25.2868 78.6467 25.3279 78.7918 25.3718C78.9355 25.4157 79.0612 25.495 79.1662 25.6112C79.2726 25.7274 79.3251 25.8889 79.3251 26.0958C79.3251 26.2715 79.274 26.4274 79.1704 26.5648C79.0681 26.7022 78.9175 26.8085 78.7213 26.8836C78.5237 26.9587 78.2902 26.9969 78.0193 26.9969C77.79 26.9998 77.5661 26.97 77.3464 26.9119Z" fill="#58595B"/>
<path d="M81.0413 23.5017C80.9902 23.4493 80.9639 23.3856 80.9639 23.3119C80.9639 23.241 80.9902 23.1801 81.0413 23.1277C81.0924 23.0753 81.156 23.0483 81.232 23.0483C81.3066 23.0483 81.3701 23.0738 81.4227 23.1249C81.4738 23.1759 81.5 23.2368 81.5 23.3062C81.5 23.3841 81.4738 23.4479 81.4227 23.5017C81.3715 23.5542 81.308 23.5811 81.232 23.5811C81.156 23.5811 81.0924 23.5542 81.0413 23.5017ZM81.0454 24.1861H81.4102V26.9575H81.0454V24.1861Z" fill="#58595B"/>
<path d="M84.4846 24.4678C84.685 24.6704 84.7845 24.9637 84.7845 25.3505V26.9572H84.4197V25.3873C84.4197 25.0997 84.3492 24.8801 84.2096 24.7285C84.0687 24.5769 83.8683 24.5018 83.6086 24.5018C83.317 24.5018 83.0876 24.591 82.9177 24.7681C82.7477 24.9452 82.6634 25.1904 82.6634 25.5035V26.9572H82.2986V24.1858H82.6482V24.6973C82.7477 24.5287 82.8859 24.3983 83.0614 24.3048C83.2382 24.2113 83.4427 24.1646 83.6749 24.1646C84.0148 24.1646 84.2843 24.2666 84.4846 24.4678Z" fill="#58595B"/>
<path d="M85.6441 23.5017C85.5929 23.4493 85.5667 23.3856 85.5667 23.3119C85.5667 23.241 85.5929 23.1801 85.6441 23.1277C85.6952 23.0753 85.7588 23.0483 85.8348 23.0483C85.9094 23.0483 85.9729 23.0738 86.0254 23.1249C86.0766 23.1759 86.1028 23.2368 86.1028 23.3062C86.1028 23.3841 86.0766 23.4479 86.0254 23.5017C85.9743 23.5542 85.9108 23.5811 85.8348 23.5811C85.7588 23.5811 85.6952 23.5542 85.6441 23.5017ZM85.6482 24.1861H86.013V26.9575H85.6482V24.1861Z" fill="#58595B"/>
<path d="M88.3246 26.7888C88.2555 26.8526 88.1712 26.9007 88.0704 26.9333C87.9695 26.9673 87.8645 26.9829 87.7539 26.9829C87.5011 26.9829 87.3049 26.9121 87.1681 26.7718C87.0313 26.6315 86.9622 26.4332 86.9622 26.1767V24.502H86.4785V24.186H86.9622V23.5796H87.327V24.186H88.1491V24.502H87.327V26.1555C87.327 26.3212 87.367 26.4459 87.4472 26.5324C87.5273 26.6188 87.6434 26.6613 87.794 26.6613C87.8686 26.6613 87.9419 26.6485 88.0123 26.6245C88.0828 26.6004 88.1436 26.5649 88.1947 26.5196L88.3246 26.7888Z" fill="#58595B"/>
<path d="M88.8553 23.5017C88.8042 23.4493 88.7779 23.3856 88.7779 23.3119C88.7779 23.241 88.8042 23.1801 88.8553 23.1277C88.9064 23.0753 88.97 23.0483 89.046 23.0483C89.1206 23.0483 89.1842 23.0738 89.2367 23.1249C89.2878 23.1759 89.3141 23.2368 89.3141 23.3062C89.3141 23.3841 89.2878 23.4479 89.2367 23.5017C89.1856 23.5542 89.122 23.5811 89.046 23.5811C88.97 23.5811 88.9064 23.5542 88.8553 23.5017ZM88.8595 24.1861H89.2242V26.9575H88.8595V24.1861Z" fill="#58595B"/>
<path d="M91.8704 24.4366C92.0584 24.618 92.1523 24.8857 92.1523 25.24V26.9572H91.8027V26.5251C91.7212 26.6696 91.5996 26.7815 91.4407 26.8623C91.2818 26.943 91.0925 26.9827 90.8728 26.9827C90.5715 26.9827 90.3311 26.909 90.1529 26.7617C89.9746 26.6143 89.8862 26.4188 89.8862 26.1765C89.8862 25.9413 89.9691 25.7515 90.1349 25.6083C90.3007 25.4638 90.566 25.393 90.9294 25.393H91.7875V25.2244C91.7875 24.9863 91.7226 24.8036 91.5927 24.6789C91.4628 24.5542 91.2721 24.4918 91.022 24.4918C90.8507 24.4918 90.6862 24.5216 90.5287 24.5783C90.3712 24.6364 90.2358 24.7157 90.1225 24.8177L89.958 24.5386C90.0948 24.4196 90.2593 24.3275 90.4513 24.2623C90.6434 24.1971 90.8451 24.1646 91.0579 24.1646C91.4117 24.1646 91.6825 24.2552 91.8704 24.4366ZM91.4587 26.5435C91.6065 26.4471 91.7157 26.3069 91.7875 26.1241V25.6707H90.9405C90.4776 25.6707 90.2468 25.8365 90.2468 26.1666C90.2468 26.3281 90.3062 26.4556 90.4265 26.5492C90.5467 26.6427 90.7139 26.6894 90.9294 26.6894C91.1353 26.688 91.3122 26.6398 91.4587 26.5435Z" fill="#58595B"/>
<path d="M94.4391 26.7888C94.37 26.8526 94.2857 26.9007 94.1848 26.9333C94.084 26.9673 93.979 26.9829 93.8684 26.9829C93.6142 26.9829 93.4193 26.9121 93.2825 26.7718C93.1457 26.6315 93.0766 26.4332 93.0766 26.1767V24.502H92.593V24.186H93.0766V23.5796H93.4414V24.186H94.2636V24.502H93.4414V26.1555C93.4414 26.3212 93.4815 26.4459 93.5617 26.5324C93.6418 26.6188 93.7579 26.6613 93.9085 26.6613C93.9831 26.6613 94.0563 26.6485 94.1268 26.6245C94.1973 26.6004 94.2581 26.5649 94.3092 26.5196L94.4391 26.7888Z" fill="#58595B"/>
<path d="M94.9683 23.5017C94.9172 23.4493 94.891 23.3856 94.891 23.3119C94.891 23.241 94.9172 23.1801 94.9683 23.1277C95.0195 23.0753 95.083 23.0483 95.159 23.0483C95.2336 23.0483 95.2972 23.0738 95.3497 23.1249C95.4008 23.1759 95.4271 23.2368 95.4271 23.3062C95.4271 23.3841 95.4008 23.4479 95.3497 23.5017C95.2986 23.5542 95.235 23.5811 95.159 23.5811C95.083 23.5811 95.0195 23.5542 94.9683 23.5017ZM94.9725 24.1861H95.3373V26.9575H94.9725V24.1861Z" fill="#58595B"/>
<path d="M98.4976 24.186L97.2954 26.9574H96.9209L95.7243 24.186H96.1043L97.1172 26.5465L98.1397 24.186H98.4976Z" fill="#58595B"/>
<path d="M101.159 25.6878H98.8983C98.919 25.9754 99.0268 26.2078 99.2217 26.3863C99.4165 26.5634 99.6638 26.6527 99.9609 26.6527C100.128 26.6527 100.283 26.6215 100.424 26.5606C100.565 26.4997 100.686 26.409 100.789 26.2885L100.995 26.5308C100.874 26.6782 100.725 26.7901 100.545 26.8681C100.366 26.9446 100.168 26.9842 99.9526 26.9842C99.6749 26.9842 99.4289 26.9233 99.2161 26.8029C99.002 26.681 98.8348 26.5138 98.7159 26.2999C98.5957 26.0859 98.5363 25.8436 98.5363 25.573C98.5363 25.3024 98.5929 25.0601 98.709 24.8462C98.8237 24.6322 98.9812 24.465 99.1816 24.346C99.382 24.227 99.6072 24.1675 99.8573 24.1675C100.107 24.1675 100.331 24.227 100.53 24.346C100.729 24.465 100.885 24.6308 100.997 24.8433C101.111 25.0559 101.167 25.2996 101.167 25.573L101.159 25.6878ZM99.1996 24.7413C99.0227 24.9113 98.9232 25.1338 98.8983 25.4072H100.815C100.791 25.1338 100.691 24.9113 100.515 24.7413C100.338 24.5713 100.118 24.4863 99.8545 24.4863C99.5934 24.4863 99.375 24.5713 99.1996 24.7413Z" fill="#58595B"/>
</g>
<defs>
<clipPath id="clip0">
<rect width="111" height="27" fill="white"/>
</clipPath>
</defs>
</svg>
